<svg xmlns="http://www.w3.org/2000/svg" style="display:none">

    <!-- WhatsApp -->
    <symbol id="whatsapp" viewBox="0 0 640 640"><path fill="currentColor" d="M476.9 161.1C435 119.1 379.2 96 319.9 96C197.5 96 97.9 195.6 97.9 318C97.9 357.1 108.1 395.3 127.5 429L96 544L213.7 513.1C246.1 530.8 282.6 540.1 319.8 540.1L319.9 540.1C442.2 540.1 544 440.5 544 318.1C544 258.8 518.8 203.1 476.9 161.1zM319.9 502.7C286.7 502.7 254.2 493.8 225.9 477L219.2 473L149.4 491.3L168 423.2L163.6 416.2C145.1 386.8 135.4 352.9 135.4 318C135.4 216.3 218.2 133.5 320 133.5C369.3 133.5 415.6 152.7 450.4 187.6C485.2 222.5 506.6 268.8 506.5 318.1C506.5 419.9 421.6 502.7 319.9 502.7zM421.1 364.5C415.6 361.7 388.3 348.3 383.2 346.5C378.1 344.6 374.4 343.7 370.7 349.3C367 354.9 356.4 367.3 353.1 371.1C349.9 374.8 346.6 375.3 341.1 372.5C308.5 356.2 287.1 343.4 265.6 306.5C259.9 296.7 271.3 297.4 281.9 276.2C283.7 272.5 282.8 269.3 281.4 266.5C280 263.7 268.9 236.4 264.3 225.3C259.8 214.5 255.2 216 251.8 215.8C248.6 215.6 244.9 215.6 241.2 215.6C237.5 215.6 231.5 217 226.4 222.5C221.3 228.1 207 241.5 207 268.8C207 296.1 226.9 322.5 229.6 326.2C232.4 329.9 268.7 385.9 324.4 410C359.6 425.2 373.4 426.5 391 423.9C401.7 422.3 423.8 410.5 428.4 397.5C433 384.5 433 373.4 431.6 371.1C430.3 368.6 426.6 367.2 421.1 364.5z"/></symbol>

    <!-- wrench -->
    <symbol id="wrench" xmlns="http://www.w3.org/2000/svg" viewBox="0 0 640 640"><path fill="currentColor" d="M541.4 162.6C549 155 561.7 156.9 565.5 166.9C572.3 184.6 576 203.9 576 224C576 312.4 504.4 384 416 384C398.5 384 381.6 381.2 365.8 376L178.9 562.9C150.8 591 105.2 591 77.1 562.9C49 534.8 49 489.2 77.1 461.1L264 274.2C258.8 258.4 256 241.6 256 224C256 135.6 327.6 64 416 64C436.1 64 455.4 67.7 473.1 74.5C483.1 78.3 484.9 91 477.4 98.6L388.7 187.3C385.7 190.3 384 194.4 384 198.6L384 240C384 248.8 391.2 256 400 256L441.4 256C445.6 256 449.7 254.3 452.7 251.3L541.4 162.6z"/></symbol>

</svg>